<?xml version="1.0" encoding="utf-8"?>
<!-- Generator: Adobe Illustrator 21.1.0, SVG Export Plug-In . SVG Version: 6.00 Build 0)  -->
<svg version="1.1" xmlns="http://www.w3.org/2000/svg" xmlns:xlink="http://www.w3.org/1999/xlink" x="0px" y="0px"
	 viewBox="0 0 793.7 623.6" style="enable-background:new 0 0 793.7 623.6;" xml:space="preserve">
<style type="text/css">
	.st0{display:none;}
	.st1{display:inline;}
	.st2{display:inline;fill:none;stroke:#000000;stroke-width:12;stroke-miterlimit:10;}
	.st3{fill:#8651A4;}
	.st4{fill:#501C89;}
	.st5{display:inline;fill:none;stroke:#501C89;stroke-width:12;stroke-miterlimit:10;}
	.st6{fill:#5BAFA6;}
	.st7{fill:#8862AB;}
	.st8{fill:#59AFA6;}
	.st9{fill:#8862A6;}
	.st10{display:inline;fill:#8862AB;}
	.st11{display:inline;fill:#59AFA6;}
	.st12{display:inline;fill:#8862A6;}
	.st13{fill:url(#SVGID_1_);}
</style>
<g id="Capa_1" class="st0">
</g>
<g id="Capa_11" class="st0">
	<g class="st1">
		<path d="M297.3,501.1c8,8,15.6,13.4,22.9,16.1c7.2,2.7,14.8,4.1,22.9,4.1c7.4,0,14.9-1.4,22.6-4.2c7.6-2.8,14.5-7.3,20.7-13.3
			c6.2-6.1,11.2-13.9,15.1-23.4c3.9-9.6,6-21.1,6.2-34.6H296.7c-4.5,0-7.2-2.6-8.2-7.9l-0.3-4.1v-4.1c0-9.2,1.8-17.5,5.3-24.9
			c3.5-7.4,8.2-13.8,14.1-19c5.9-5.3,12.7-9.3,20.7-12.2c7.9-2.8,16.3-4.2,25-4.2c10.9,0,21.6,2.4,31.9,7.2
			c10.4,4.8,19.5,11.4,27.4,19.8c7.9,8.4,14.3,18.2,19,29.4c4.8,11.2,7.2,23.4,7.2,36.5c0,11.7-2,22.8-6,33.3
			c-4,10.5-9.7,19.6-17,27.4c-7.3,7.8-16.1,14-26.2,18.5c-10.2,4.5-21.3,6.7-33.4,6.7c-2.9,0-6.9-0.5-12-1.5
			c-5.1-1-10.6-2.8-16.7-5.6c-6.1-2.7-12.4-6.6-19-11.6c-6.6-5-13.1-11.6-19.3-19.8L297.3,501.1z M406.3,432.5
			c-1.2-7.6-3.3-14.4-6.3-20.4c-3-6-6.6-11-10.7-15.1c-4.1-4.1-8.5-7.2-13.2-9.4c-4.7-2.1-9.4-3.2-14.1-3.2c-6.1,0-11.5,1-16.4,2.9
			c-4.9,2-9,4.7-12.3,8.2c-3.3,3.5-5.9,7.6-7.6,12.3c-1.8,4.7-2.6,9.7-2.6,14.9c0,3.5,0.6,6,1.8,7.5c1.2,1.5,3.7,2.2,7.6,2.2H406.3z
			"/>
	</g>
	<g class="st1">
		<path d="M502.1,509.6c-6.3,8.2-12.7,14.8-19.3,19.8c-6.6,5-13,8.8-19,11.6c-6.1,2.7-11.6,4.6-16.7,5.6c-5.1,1-9.1,1.5-12,1.5
			c-12.1,0-23.2-2.2-33.4-6.7c-10.2-4.5-18.9-10.6-26.2-18.5c-7.3-7.8-13-16.9-17-27.4c-4-10.4-6-21.5-6-33.3
			c0-13.1,2.4-25.2,7.2-36.5c4.8-11.2,11.1-21,19-29.4c7.9-8.4,17-15,27.4-19.8c10.3-4.8,21-7.2,31.9-7.2c8.8,0,17.1,1.4,25,4.2
			c7.9,2.8,14.8,6.9,20.7,12.2c5.9,5.3,10.5,11.6,14.1,19c3.5,7.4,5.3,15.7,5.3,24.9v4.1l-0.3,4.1c-1,5.3-3.7,7.9-8.2,7.9H383.8
			c0.2,13.5,2.2,25,6.2,34.6c3.9,9.6,8.9,17.4,15.1,23.4c6.2,6.1,13,10.5,20.7,13.3c7.6,2.8,15.1,4.2,22.6,4.2
			c8,0,15.6-1.4,22.9-4.1c7.2-2.7,14.8-8.1,22.9-16.1L502.1,509.6z M458.8,432.5c3.9,0,6.4-0.7,7.6-2.2c1.2-1.5,1.8-4,1.8-7.5
			c0-5.3-0.9-10.3-2.6-14.9c-1.8-4.7-4.3-8.8-7.6-12.3c-3.3-3.5-7.4-6.2-12.3-8.2c-4.9-2-10.4-2.9-16.4-2.9c-4.7,0-9.4,1.1-14.1,3.2
			c-4.7,2.2-9.1,5.3-13.2,9.4c-4.1,4.1-7.7,9.1-10.7,15.1c-3,6-5.1,12.7-6.3,20.4H458.8z"/>
	</g>
	<path class="st2" d="M295,506.9c-67.4-37.5-119.9-113.5-119.9-196.1c0-121.4,98.4-219.7,219.7-219.7s219.7,98.4,219.7,219.7
		c0,84.2-49.4,158.4-118.9,195.2"/>
	<g class="st1">
		<g>
			<path d="M577,203.5c0.4,0,2.2-0.8,1.2-0.8C577.8,202.7,576,203.5,577,203.5L577,203.5z"/>
		</g>
	</g>
	<g class="st1">
		<g>
			<path d="M181.4,298.8c-0.6-20,8.4-41.1,21.6-55.9c6-6.7,13.8-12.8,22.8-14.4c10.5-1.8,20.4,3.3,28.2,9.8
				c16.6,13.8,23.8,45.9,11.3,64.3c-4,5.9-10.4,7.9-17.1,6c-7.5-2.1-12.3-9.2-14-16.5c-0.8-3.5-0.7-7.1-0.3-10.6
				c0.5-4.1-9.3-2.4-9.7,1.1c-2,16.6,7.5,31.6,25,32.6c7.8,0.4,15.7-2.7,21.4-7.9c7.5-6.7,9.8-17.2,10.3-26.8
				c1.2-22.8-10.5-45.9-32.1-55c-18.2-7.7-37.7-0.1-51.2,13c-16.3,15.8-26.6,40.2-25.9,62.9C171.9,304.7,181.5,302.7,181.4,298.8
				L181.4,298.8z"/>
		</g>
	</g>
	<g class="st1">
		<g>
			<path d="M619,297.5c1-34.2-26.9-84.9-67.3-76.2c-22.6,4.9-37.6,24.5-41.2,46.6c-2.9,17.5,1.6,41.4,22.1,45c8.9,1.6,18-1.3,24.9-7
				c8-6.6,10.2-17.2,9-27c-0.4-3.5-10.1-1.3-9.7,2.6c1,8.2-0.7,17.7-7.7,23c-5.4,4.1-12.1,3.7-17.8,0.4
				c-8.7-5.1-11.1-16.2-11.8-25.5c-0.9-12.4,2.6-25.3,9.3-35.7c5.7-8.8,15.6-16.1,26.2-17.3c9.2-1.1,18.3,3.6,25.3,9.2
				c15.7,12.6,25.5,33.2,28.4,52.8c0.5,3.4,0.7,6.9,0.6,10.3C609.2,302.9,618.9,301,619,297.5L619,297.5z"/>
		</g>
	</g>
	<g class="st1">
		<path d="M330.4,296.2c0,2.2,0.1,4,0.4,5.5c0.3,1.4,0.8,2.6,1.7,3.4c0.9,0.8,2.1,1.4,3.7,1.7c1.6,0.3,3.7,0.5,6.4,0.5h7.2
			c3.8,0,6.9-0.3,9.2-0.9c2.4-0.6,4.4-1.7,6-3.1c1.6-1.5,3.1-3.4,4.3-5.8c1.3-2.4,2.7-5.4,4.2-8.9l3.8,0.9c-0.5,1.9-1,3.9-1.5,6.1
			c-0.5,2.1-0.9,4.3-1.3,6.3c-0.4,2.1-0.7,4-1,5.9c-0.3,1.8-0.4,3.3-0.5,4.5c-13,0-23.5,0-31.5-0.1c-8-0.1-14-0.1-18-0.1
			c-1.2,0-2.6,0-4.2,0c-1.6,0-3.2,0-4.9,0c-1.7,0-3.3,0-4.9,0c-1.6,0-2.9,0-4.1,0l-0.3-3.3c3-0.2,5.4-0.5,7.2-0.9
			c1.8-0.4,3.2-1.1,4.2-2c1-0.9,1.6-2.1,2-3.6c0.3-1.5,0.5-3.5,0.5-6v-65.7c0-1.6-0.1-2.9-0.4-3.9c-0.3-1-0.9-1.9-1.8-2.6
			s-2.1-1.2-3.8-1.5c-1.7-0.3-3.9-0.6-6.7-0.7l0.3-3.5c1.2,0,2.7,0,4.2,0c1.6,0,3.2,0,4.8,0c1.7,0,3.3,0,4.9,0c1.6,0,3.1,0,4.4,0
			c2.5,0,7.9,0,16-0.1c8.1-0.1,18.5-0.1,31.1-0.1c-0.4,3.3-0.7,6.8-0.9,10.4c-0.2,3.6-0.3,7.5-0.4,11.6l-3.9,0.1
			c-0.6-3.4-1.2-6.2-2-8.4c-0.7-2.2-1.7-4-3-5.3c-1.3-1.3-3-2.3-5.1-2.8c-2.1-0.6-4.8-0.8-8.1-0.8h-14c-2,0-3.2,0.2-3.8,0.6
			c-0.6,0.4-0.8,1.4-0.8,3v33.8l33-1l0.7,0.7l-0.2,8.1c-5.9-0.5-11.8-0.9-17.5-1.1c-5.8-0.2-11.1-0.4-16-0.5V296.2z"/>
		<path d="M466.8,313.5c-1.7-2.4-3.4-4.7-5.1-7c-1.7-2.2-3.5-4.5-5.4-6.8l-52.6-62.4V295c0,3.1,0.2,5.5,0.5,7.2c0.4,1.7,1,3,2,3.9
			c1,0.9,2.3,1.5,4,1.8c1.7,0.3,3.8,0.5,6.5,0.7l-0.2,3.5c-2.1,0-4.5,0-7.4-0.1c-2.8-0.1-5.8-0.1-8.9-0.1c-2.5,0-5.1,0-7.8,0.1
			c-2.7,0.1-5.2,0.1-7.5,0.1l-0.3-3.3c2.6-0.3,4.8-0.6,6.4-0.9c1.7-0.4,3-1.1,4.1-2.2c1-1.1,1.7-2.8,2.1-5c0.4-2.2,0.6-5.3,0.6-9.2
			v-48.9c0-2.7,0-4.9-0.1-6.6c-0.1-1.7-0.2-3.1-0.4-4.2c-0.2-1.1-0.5-2-0.9-2.7c-0.4-0.7-0.9-1.5-1.6-2.2c-0.7-0.8-1.3-1.6-2-2.1
			c-0.7-0.6-1.4-1.1-2.2-1.5c-0.8-0.4-1.9-0.7-3.1-0.9c-1.2-0.2-2.8-0.4-4.6-0.5l0.2-3.5c0.8,0,1.9,0,3.5,0c1.5,0,3.2,0,5.1,0
			c1.9,0,3.8,0,5.9,0c2,0,3.9,0,5.7,0l62.8,73.5v-56.5c0-3.1-0.2-5.5-0.5-7.2c-0.4-1.7-1-3-2-3.9c-1-0.9-2.3-1.5-4-1.8
			c-1.7-0.3-3.9-0.5-6.5-0.7l0.2-3.5c2.1,0,4.6,0,7.4,0.1c2.9,0.1,5.9,0.1,9,0.1c1.2,0,2.5,0,3.9,0c1.4,0,2.7-0.1,4.1-0.1
			c1.3,0,2.6-0.1,3.8-0.1c1.2,0,2.3,0,3.2,0l0.1,3.3c-2.5,0.3-4.6,0.6-6.2,1c-1.6,0.4-2.9,1.1-3.9,2.2c-0.9,1.1-1.6,2.8-2,5
			c-0.4,2.2-0.6,5.3-0.6,9.2v73.4L466.8,313.5z"/>
	</g>
</g>
<g id="Capa_11_copia_2" class="st0">
	<g class="st1">
		<path class="st3" d="M297.3,501.1c8,8,15.6,13.4,22.9,16.1c7.2,2.7,14.8,4.1,22.9,4.1c7.4,0,14.9-1.4,22.6-4.2
			c7.6-2.8,14.5-7.3,20.7-13.3c6.2-6.1,11.2-13.9,15.1-23.4c3.9-9.6,6-21.1,6.2-34.6H296.7c-4.5,0-7.2-2.6-8.2-7.9l-0.3-4.1v-4.1
			c0-9.2,1.8-17.5,5.3-24.9c3.5-7.4,8.2-13.8,14.1-19c5.9-5.3,12.7-9.3,20.7-12.2c7.9-2.8,16.3-4.2,25-4.2c10.9,0,21.6,2.4,31.9,7.2
			c10.4,4.8,19.5,11.4,27.4,19.8c7.9,8.4,14.3,18.2,19,29.4c4.8,11.2,7.2,23.4,7.2,36.5c0,11.7-2,22.8-6,33.3
			c-4,10.5-9.7,19.6-17,27.4c-7.3,7.8-16.1,14-26.2,18.5c-10.2,4.5-21.3,6.7-33.4,6.7c-2.9,0-6.9-0.5-12-1.5
			c-5.1-1-10.6-2.8-16.7-5.6c-6.1-2.7-12.4-6.6-19-11.6c-6.6-5-13.1-11.6-19.3-19.8L297.3,501.1z M406.3,432.5
			c-1.2-7.6-3.3-14.4-6.3-20.4c-3-6-6.6-11-10.7-15.1c-4.1-4.1-8.5-7.2-13.2-9.4c-4.7-2.1-9.4-3.2-14.1-3.2c-6.1,0-11.5,1-16.4,2.9
			c-4.9,2-9,4.7-12.3,8.2c-3.3,3.5-5.9,7.6-7.6,12.3c-1.8,4.7-2.6,9.7-2.6,14.9c0,3.5,0.6,6,1.8,7.5c1.2,1.5,3.7,2.2,7.6,2.2H406.3z
			"/>
	</g>
	<g class="st1">
		<path class="st4" d="M502.1,509.6c-6.3,8.2-12.7,14.8-19.3,19.8c-6.6,5-13,8.8-19,11.6c-6.1,2.7-11.6,4.6-16.7,5.6
			c-5.1,1-9.1,1.5-12,1.5c-12.1,0-23.2-2.2-33.4-6.7c-10.2-4.5-18.9-10.6-26.2-18.5c-7.3-7.8-13-16.9-17-27.4c-4-10.4-6-21.5-6-33.3
			c0-13.1,2.4-25.2,7.2-36.5c4.8-11.2,11.1-21,19-29.4c7.9-8.4,17-15,27.4-19.8c10.3-4.8,21-7.2,31.9-7.2c8.8,0,17.1,1.4,25,4.2
			c7.9,2.8,14.8,6.9,20.7,12.2c5.9,5.3,10.5,11.6,14.1,19c3.5,7.4,5.3,15.7,5.3,24.9v4.1l-0.3,4.1c-1,5.3-3.7,7.9-8.2,7.9H383.8
			c0.2,13.5,2.2,25,6.2,34.6c3.9,9.6,8.9,17.4,15.1,23.4c6.2,6.1,13,10.5,20.7,13.3c7.6,2.8,15.1,4.2,22.6,4.2
			c8,0,15.6-1.4,22.9-4.1c7.2-2.7,14.8-8.1,22.9-16.1L502.1,509.6z M458.8,432.5c3.9,0,6.4-0.7,7.6-2.2c1.2-1.5,1.8-4,1.8-7.5
			c0-5.3-0.9-10.3-2.6-14.9c-1.8-4.7-4.3-8.8-7.6-12.3c-3.3-3.5-7.4-6.2-12.3-8.2c-4.9-2-10.4-2.9-16.4-2.9c-4.7,0-9.4,1.1-14.1,3.2
			c-4.7,2.2-9.1,5.3-13.2,9.4c-4.1,4.1-7.7,9.1-10.7,15.1c-3,6-5.1,12.7-6.3,20.4H458.8z"/>
	</g>
	<path class="st5" d="M177.8,285.2c13.6-108.3,105-194.1,217-194.1c121.4,0,219.7,98.4,219.7,219.7c0,84.2-49.4,158.4-118.9,195.2"
		/>
	<g class="st1">
		<g>
			<path class="st3" d="M299.6,504c-43.7-24.5-79.1-63.4-99.8-109c-10.5-23.1-16.8-48-18.5-73.4c-0.3-4.5-0.7-9.2-0.1-13.7
				c0.4-3.1,1.3-6.3,1.2-9.4c-0.3-9.8,2.1-19.6,5.5-28.8c5.8-15.6,17.6-34.2,34.3-39.7c19.5-6.4,37.7,11.5,44.2,28.1
				c4.2,10.7,5,22.5,2.7,33.7c-1.4,6.6-5.1,14.4-12.1,16.5c-5.6,1.7-11.6-1.2-15.6-5c-5.9-5.7-7.3-14.2-6.4-22
				c0.6-4.9-11.1-2.9-11.6,1.3c-2,17,7.7,32.1,25.6,33.1c8.2,0.5,16.5-2.8,22.6-8.3c7.6-6.8,10-17.4,10.5-27.1
				c1.2-23-10.6-46.2-32.3-55.4c-18.7-7.9-38.9-0.2-52.7,13.3c-14.3,13.9-23.6,34-25.8,53.6c-0.7,6.5-0.9,13-1.8,19.5
				c-0.8,5.6,0.3,12.2,0.7,17.8c0.5,6.6,1.5,13.2,2.7,19.7c9,49.3,36.4,94.7,73,128.4c13.5,12.5,28.6,23.4,44.7,32.4
				C294,511.8,304.6,506.8,299.6,504L299.6,504z"/>
		</g>
	</g>
	<g class="st1">
		<g>
			<path d="M577,203.5c0.4,0,2.2-0.8,1.2-0.8C577.8,202.7,576,203.5,577,203.5L577,203.5z"/>
		</g>
	</g>
	<g class="st1">
		<g>
			<path class="st4" d="M619,297.5c1-34.2-26.9-84.9-67.3-76.2c-22.6,4.9-37.6,24.5-41.2,46.6c-2.9,17.5,1.6,41.4,22.1,45
				c8.9,1.6,18-1.3,24.9-7c8-6.6,10.2-17.2,9-27c-0.4-3.5-10.1-1.3-9.7,2.6c1,8.2-0.7,17.7-7.7,23c-5.4,4.1-12.1,3.7-17.8,0.4
				c-8.7-5.1-11.1-16.2-11.8-25.5c-0.9-12.4,2.6-25.3,9.3-35.7c5.7-8.8,15.6-16.1,26.2-17.3c9.2-1.1,18.3,3.6,25.3,9.2
				c15.7,12.6,25.5,33.2,28.4,52.8c0.5,3.4,0.7,6.9,0.6,10.3C609.2,302.9,618.9,301,619,297.5L619,297.5z"/>
		</g>
	</g>
	<g class="st1">
		<path class="st3" d="M330.4,296.2c0,2.2,0.1,4,0.4,5.5c0.3,1.4,0.8,2.6,1.7,3.4c0.9,0.8,2.1,1.4,3.7,1.7c1.6,0.3,3.7,0.5,6.4,0.5
			h7.2c3.8,0,6.9-0.3,9.2-0.9c2.4-0.6,4.4-1.7,6-3.1c1.6-1.5,3.1-3.4,4.3-5.8c1.3-2.4,2.7-5.4,4.2-8.9l3.8,0.9
			c-0.5,1.9-1,3.9-1.5,6.1c-0.5,2.1-0.9,4.3-1.3,6.3c-0.4,2.1-0.7,4-1,5.9c-0.3,1.8-0.4,3.3-0.5,4.5c-13,0-23.5,0-31.5-0.1
			c-8-0.1-14-0.1-18-0.1c-1.2,0-2.6,0-4.2,0c-1.6,0-3.2,0-4.9,0c-1.7,0-3.3,0-4.9,0c-1.6,0-2.9,0-4.1,0l-0.3-3.3
			c3-0.2,5.4-0.5,7.2-0.9c1.8-0.4,3.2-1.1,4.2-2c1-0.9,1.6-2.1,2-3.6c0.3-1.5,0.5-3.5,0.5-6v-65.7c0-1.6-0.1-2.9-0.4-3.9
			c-0.3-1-0.9-1.9-1.8-2.6s-2.1-1.2-3.8-1.5c-1.7-0.3-3.9-0.6-6.7-0.7l0.3-3.5c1.2,0,2.7,0,4.2,0c1.6,0,3.2,0,4.8,0
			c1.7,0,3.3,0,4.9,0c1.6,0,3.1,0,4.4,0c2.5,0,7.9,0,16-0.1c8.1-0.1,18.5-0.1,31.1-0.1c-0.4,3.3-0.7,6.8-0.9,10.4
			c-0.2,3.6-0.3,7.5-0.4,11.6l-3.9,0.1c-0.6-3.4-1.2-6.2-2-8.4c-0.7-2.2-1.7-4-3-5.3c-1.3-1.3-3-2.3-5.1-2.8
			c-2.1-0.6-4.8-0.8-8.1-0.8h-14c-2,0-3.2,0.2-3.8,0.6c-0.6,0.4-0.8,1.4-0.8,3v33.8l33-1l0.7,0.7l-0.2,8.1
			c-5.9-0.5-11.8-0.9-17.5-1.1c-5.8-0.2-11.1-0.4-16-0.5V296.2z"/>
		<path class="st4" d="M466.8,313.5c-1.7-2.4-3.4-4.7-5.1-7c-1.7-2.2-3.5-4.5-5.4-6.8l-52.6-62.4V295c0,3.1,0.2,5.5,0.5,7.2
			c0.4,1.7,1,3,2,3.9c1,0.9,2.3,1.5,4,1.8c1.7,0.3,3.8,0.5,6.5,0.7l-0.2,3.5c-2.1,0-4.5,0-7.4-0.1c-2.8-0.1-5.8-0.1-8.9-0.1
			c-2.5,0-5.1,0-7.8,0.1c-2.7,0.1-5.2,0.1-7.5,0.1l-0.3-3.3c2.6-0.3,4.8-0.6,6.4-0.9c1.7-0.4,3-1.1,4.1-2.2c1-1.1,1.7-2.8,2.1-5
			c0.4-2.2,0.6-5.3,0.6-9.2v-48.9c0-2.7,0-4.9-0.1-6.6c-0.1-1.7-0.2-3.1-0.4-4.2c-0.2-1.1-0.5-2-0.9-2.7c-0.4-0.7-0.9-1.5-1.6-2.2
			c-0.7-0.8-1.3-1.6-2-2.1c-0.7-0.6-1.4-1.1-2.2-1.5c-0.8-0.4-1.9-0.7-3.1-0.9c-1.2-0.2-2.8-0.4-4.6-0.5l0.2-3.5c0.8,0,1.9,0,3.5,0
			c1.5,0,3.2,0,5.1,0c1.9,0,3.8,0,5.9,0c2,0,3.9,0,5.7,0l62.8,73.5v-56.5c0-3.1-0.2-5.5-0.5-7.2c-0.4-1.7-1-3-2-3.9
			c-1-0.9-2.3-1.5-4-1.8c-1.7-0.3-3.9-0.5-6.5-0.7l0.2-3.5c2.1,0,4.6,0,7.4,0.1c2.9,0.1,5.9,0.1,9,0.1c1.2,0,2.5,0,3.9,0
			c1.4,0,2.7-0.1,4.1-0.1c1.3,0,2.6-0.1,3.8-0.1c1.2,0,2.3,0,3.2,0l0.1,3.3c-2.5,0.3-4.6,0.6-6.2,1c-1.6,0.4-2.9,1.1-3.9,2.2
			c-0.9,1.1-1.6,2.8-2,5c-0.4,2.2-0.6,5.3-0.6,9.2v73.4L466.8,313.5z"/>
	</g>
</g>
<g id="Capa_11_copia_3">
	<g>
		<path class="st6" d="M297.3,501.1c8,8,15.6,13.4,22.9,16.1c7.2,2.7,14.8,4.1,22.9,4.1c7.4,0,14.9-1.4,22.6-4.2
			c7.6-2.8,14.5-7.3,20.7-13.3c6.2-6.1,11.2-13.9,15.1-23.4c3.9-9.6,6-21.1,6.2-34.6H296.7c-4.5,0-7.2-2.6-8.2-7.9l-0.3-4.1v-4.1
			c0-9.2,1.8-17.5,5.3-24.9c3.5-7.4,8.2-13.8,14.1-19c5.9-5.3,12.7-9.3,20.7-12.2c7.9-2.8,16.3-4.2,25-4.2c10.9,0,21.6,2.4,31.9,7.2
			c10.4,4.8,19.5,11.4,27.4,19.8c7.9,8.4,14.3,18.2,19,29.4c4.8,11.2,7.2,23.4,7.2,36.5c0,11.7-2,22.8-6,33.3
			c-4,10.5-9.7,19.6-17,27.4c-7.3,7.8-16.1,14-26.2,18.5c-10.2,4.5-21.3,6.7-33.4,6.7c-2.9,0-6.9-0.5-12-1.5
			c-5.1-1-10.6-2.8-16.7-5.6c-6.1-2.7-12.4-6.6-19-11.6c-6.6-5-13.1-11.6-19.3-19.8L297.3,501.1z M406.3,432.5
			c-1.2-7.6-3.3-14.4-6.3-20.4c-3-6-6.6-11-10.7-15.1c-4.1-4.1-8.5-7.2-13.2-9.4c-4.7-2.1-9.4-3.2-14.1-3.2c-6.1,0-11.5,1-16.4,2.9
			c-4.9,2-9,4.7-12.3,8.2c-3.3,3.5-5.9,7.6-7.6,12.3c-1.8,4.7-2.6,9.7-2.6,14.9c0,3.5,0.6,6,1.8,7.5c1.2,1.5,3.7,2.2,7.6,2.2H406.3z
			"/>
	</g>
	<g>
		<path class="st7" d="M502.1,509.6c-6.3,8.2-12.7,14.8-19.3,19.8c-6.6,5-13,8.8-19,11.6c-6.1,2.7-11.6,4.6-16.7,5.6
			c-5.1,1-9.1,1.5-12,1.5c-12.1,0-23.2-2.2-33.4-6.7c-10.2-4.5-18.9-10.6-26.2-18.5c-7.3-7.8-13-16.9-17-27.4c-4-10.4-6-21.5-6-33.3
			c0-13.1,2.4-25.2,7.2-36.5c4.8-11.2,11.1-21,19-29.4c7.9-8.4,17-15,27.4-19.8c10.3-4.8,21-7.2,31.9-7.2c8.8,0,17.1,1.4,25,4.2
			c7.9,2.8,14.8,6.9,20.7,12.2c5.9,5.3,10.5,11.6,14.1,19c3.5,7.4,5.3,15.7,5.3,24.9v4.1l-0.3,4.1c-1,5.3-3.7,7.9-8.2,7.9H383.8
			c0.2,13.5,2.2,25,6.2,34.6c3.9,9.6,8.9,17.4,15.1,23.4c6.2,6.1,13,10.5,20.7,13.3c7.6,2.8,15.1,4.2,22.6,4.2
			c8,0,15.6-1.4,22.9-4.1c7.2-2.7,14.8-8.1,22.9-16.1L502.1,509.6z M458.8,432.5c3.9,0,6.4-0.7,7.6-2.2c1.2-1.5,1.8-4,1.8-7.5
			c0-5.3-0.9-10.3-2.6-14.9c-1.8-4.7-4.3-8.8-7.6-12.3c-3.3-3.5-7.4-6.2-12.3-8.2c-4.9-2-10.4-2.9-16.4-2.9c-4.7,0-9.4,1.1-14.1,3.2
			c-4.7,2.2-9.1,5.3-13.2,9.4c-4.1,4.1-7.7,9.1-10.7,15.1c-3,6-5.1,12.7-6.3,20.4H458.8z"/>
	</g>
	<path class="st7" d="M502.1,509.6l-8.2-8.5c33.9-18,61.7-45.2,82.2-78c21.2-34,32.5-72.8,32.5-112.2c0-57.1-22.2-110.8-62.6-151.1
		c-40.4-40.4-94-62.6-151.1-62.6C288,97.1,196.2,181,182.7,288.7l-10.1-4.1C186.8,170.9,282,85.1,394.8,85.1
		c60.3,0,117,23.5,159.6,66.1c42.6,42.6,66.1,99.3,66.1,159.6c0,41.6-11.9,82.6-34.3,118.5C564.6,464,537.9,490.6,502.1,509.6z"/>
	<path class="st8" d="M220.6,302.3c-1.6,13.6,4,27.2,17.7,31.7c12.4,4.1,26.8-0.8,34.3-11.3c10.2-14.3,7.9-36.8,0.9-51.9
		c-7.9-17.1-25.1-29.8-44.1-31.2c-36-2.7-60.3,33.8-60.2,66.4c0,18.1,1.4,35.9,5.6,53.6c4.7,19.7,12.3,38.5,22.1,56.2
		c21.7,39.2,52.9,72,92,93.9c2.3,1.3,9.9-7.5,8.2-8.5c-61.3-34.4-104.9-94.8-114.5-165c-3.9-28.4-4.5-62.5,20.2-82.2
		c12.5-10,27.4-9,40.7-0.7c15,9.4,23,25.7,24,43.1c0.6,10.6-2.1,32.5-17,32.1c-13.9-0.4-19.8-15.6-18.4-27.4
		C232.8,296.1,221.1,298.1,220.6,302.3L220.6,302.3z"/>
	<g>
		<g>
			<path d="M577,203.5c0.4,0,2.2-0.8,1.2-0.8C577.8,202.7,576,203.5,577,203.5L577,203.5z"/>
		</g>
	</g>
	<g>
		<path class="st6" d="M330.4,296.2c0,2.2,0.1,4,0.4,5.5c0.3,1.4,0.8,2.6,1.7,3.4c0.9,0.8,2.1,1.4,3.7,1.7c1.6,0.3,3.7,0.5,6.4,0.5
			h7.2c3.8,0,6.9-0.3,9.2-0.9c2.4-0.6,4.4-1.7,6-3.1c1.6-1.5,3.1-3.4,4.3-5.8c1.3-2.4,2.7-5.4,4.2-8.9l3.8,0.9
			c-0.5,1.9-1,3.9-1.5,6.1c-0.5,2.1-0.9,4.3-1.3,6.3c-0.4,2.1-0.7,4-1,5.9c-0.3,1.8-0.4,3.3-0.5,4.5c-13,0-23.5,0-31.5-0.1
			c-8-0.1-14-0.1-18-0.1c-1.2,0-2.6,0-4.2,0c-1.6,0-3.2,0-4.9,0c-1.7,0-3.3,0-4.9,0c-1.6,0-2.9,0-4.1,0l-0.3-3.3
			c3-0.2,5.4-0.5,7.2-0.9c1.8-0.4,3.2-1.1,4.2-2c1-0.9,1.6-2.1,2-3.6c0.3-1.5,0.5-3.5,0.5-6v-65.7c0-1.6-0.1-2.9-0.4-3.9
			c-0.3-1-0.9-1.9-1.8-2.6s-2.1-1.2-3.8-1.5c-1.7-0.3-3.9-0.6-6.7-0.7l0.3-3.5c1.2,0,2.7,0,4.2,0c1.6,0,3.2,0,4.8,0
			c1.7,0,3.3,0,4.9,0c1.6,0,3.1,0,4.4,0c2.5,0,7.9,0,16-0.1c8.1-0.1,18.5-0.1,31.1-0.1c-0.4,3.3-0.7,6.8-0.9,10.4
			c-0.2,3.6-0.3,7.5-0.4,11.6l-3.9,0.1c-0.6-3.4-1.2-6.2-2-8.4c-0.7-2.2-1.7-4-3-5.3c-1.3-1.3-3-2.3-5.1-2.8
			c-2.1-0.6-4.8-0.8-8.1-0.8h-14c-2,0-3.2,0.2-3.8,0.6c-0.6,0.4-0.8,1.4-0.8,3v33.8l33-1l0.7,0.7l-0.2,8.1
			c-5.9-0.5-11.8-0.9-17.5-1.1c-5.8-0.2-11.1-0.4-16-0.5V296.2z"/>
		<path class="st7" d="M466.8,313.5c-1.7-2.4-3.4-4.7-5.1-7c-1.7-2.2-3.5-4.5-5.4-6.8l-52.6-62.4V295c0,3.1,0.2,5.5,0.5,7.2
			c0.4,1.7,1,3,2,3.9c1,0.9,2.3,1.5,4,1.8c1.7,0.3,3.8,0.5,6.5,0.7l-0.2,3.5c-2.1,0-4.5,0-7.4-0.1c-2.8-0.1-5.8-0.1-8.9-0.1
			c-2.5,0-5.1,0-7.8,0.1c-2.7,0.1-5.2,0.1-7.5,0.1l-0.3-3.3c2.6-0.3,4.8-0.6,6.4-0.9c1.7-0.4,3-1.1,4.1-2.2c1-1.1,1.7-2.8,2.1-5
			c0.4-2.2,0.6-5.3,0.6-9.2v-48.9c0-2.7,0-4.9-0.1-6.6c-0.1-1.7-0.2-3.1-0.4-4.2c-0.2-1.1-0.5-2-0.9-2.7c-0.4-0.7-0.9-1.5-1.6-2.2
			c-0.7-0.8-1.3-1.6-2-2.1c-0.7-0.6-1.4-1.1-2.2-1.5c-0.8-0.4-1.9-0.7-3.1-0.9c-1.2-0.2-2.8-0.4-4.6-0.5l0.2-3.5c0.8,0,1.9,0,3.5,0
			c1.5,0,3.2,0,5.1,0c1.9,0,3.8,0,5.9,0c2,0,3.9,0,5.7,0l62.8,73.5v-56.5c0-3.1-0.2-5.5-0.5-7.2c-0.4-1.7-1-3-2-3.9
			c-1-0.9-2.3-1.5-4-1.8c-1.7-0.3-3.9-0.5-6.5-0.7l0.2-3.5c2.1,0,4.6,0,7.4,0.1c2.9,0.1,5.9,0.1,9,0.1c1.2,0,2.5,0,3.9,0
			c1.4,0,2.7-0.1,4.1-0.1c1.3,0,2.6-0.1,3.8-0.1c1.2,0,2.3,0,3.2,0l0.1,3.3c-2.5,0.3-4.6,0.6-6.2,1c-1.6,0.4-2.9,1.1-3.9,2.2
			c-0.9,1.1-1.6,2.8-2,5c-0.4,2.2-0.6,5.3-0.6,9.2v73.4L466.8,313.5z"/>
	</g>
	<path class="st9" d="M620.4,304.1c0.5-19.8-7.7-40.4-23.1-53.3c-16.5-13.8-38.2-14.5-56.7-4.1c-20.1,11.3-31,32.5-30.1,55.4
		c0.7,17,9.8,33.4,28.6,33.2c19.5-0.3,32.2-16.4,30-35.3c-0.5-4.2-12.1-1.5-11.6,3.1c1.2,9.8-2.5,24.7-14.7,25.2
		c-14.4,0.6-19.9-16.4-20.6-27.9c-1.1-18.2,6.3-37.2,21.7-47.5c14.6-9.7,31.2-8,44.1,3.7c13.5,12.1,21.3,30.7,20.8,48.7
		C608.6,310.5,620.2,308.2,620.4,304.1L620.4,304.1z"/>
</g>
<g id="Capa_11_copia_4" class="st0">
	<g class="st1">
		<path class="st6" d="M297.3,501.1c8,8,15.6,13.4,22.9,16.1c7.2,2.7,14.8,4.1,22.9,4.1c7.4,0,14.9-1.4,22.6-4.2
			c7.6-2.8,14.5-7.3,20.7-13.3c6.2-6.1,11.2-13.9,15.1-23.4c3.9-9.6,6-21.1,6.2-34.6H296.7c-4.5,0-7.2-2.6-8.2-7.9l-0.3-4.1v-4.1
			c0-9.2,1.8-17.5,5.3-24.9c3.5-7.4,8.2-13.8,14.1-19c5.9-5.3,12.7-9.3,20.7-12.2c7.9-2.8,16.3-4.2,25-4.2c10.9,0,21.6,2.4,31.9,7.2
			c10.4,4.8,19.5,11.4,27.4,19.8c7.9,8.4,14.3,18.2,19,29.4c4.8,11.2,7.2,23.4,7.2,36.5c0,11.7-2,22.8-6,33.3
			c-4,10.5-9.7,19.6-17,27.4c-7.3,7.8-16.1,14-26.2,18.5c-10.2,4.5-21.3,6.7-33.4,6.7c-2.9,0-6.9-0.5-12-1.5
			c-5.1-1-10.6-2.8-16.7-5.6c-6.1-2.7-12.4-6.6-19-11.6c-6.6-5-13.1-11.6-19.3-19.8L297.3,501.1z M406.3,432.5
			c-1.2-7.6-3.3-14.4-6.3-20.4c-3-6-6.6-11-10.7-15.1c-4.1-4.1-8.5-7.2-13.2-9.4c-4.7-2.1-9.4-3.2-14.1-3.2c-6.1,0-11.5,1-16.4,2.9
			c-4.9,2-9,4.7-12.3,8.2c-3.3,3.5-5.9,7.6-7.6,12.3c-1.8,4.7-2.6,9.7-2.6,14.9c0,3.5,0.6,6,1.8,7.5c1.2,1.5,3.7,2.2,7.6,2.2H406.3z
			"/>
	</g>
	<g class="st1">
		<path class="st7" d="M502.1,509.6c-6.3,8.2-12.7,14.8-19.3,19.8c-6.6,5-13,8.8-19,11.6c-6.1,2.7-11.6,4.6-16.7,5.6
			c-5.1,1-9.1,1.5-12,1.5c-12.1,0-23.2-2.2-33.4-6.7c-10.2-4.5-18.9-10.6-26.2-18.5c-7.3-7.8-13-16.9-17-27.4c-4-10.4-6-21.5-6-33.3
			c0-13.1,2.4-25.2,7.2-36.5c4.8-11.2,11.1-21,19-29.4c7.9-8.4,17-15,27.4-19.8c10.3-4.8,21-7.2,31.9-7.2c8.8,0,17.1,1.4,25,4.2
			c7.9,2.8,14.8,6.9,20.7,12.2c5.9,5.3,10.5,11.6,14.1,19c3.5,7.4,5.3,15.7,5.3,24.9v4.1l-0.3,4.1c-1,5.3-3.7,7.9-8.2,7.9H383.8
			c0.2,13.5,2.2,25,6.2,34.6c3.9,9.6,8.9,17.4,15.1,23.4c6.2,6.1,13,10.5,20.7,13.3c7.6,2.8,15.1,4.2,22.6,4.2
			c8,0,15.6-1.4,22.9-4.1c7.2-2.7,14.8-8.1,22.9-16.1L502.1,509.6z M458.8,432.5c3.9,0,6.4-0.7,7.6-2.2c1.2-1.5,1.8-4,1.8-7.5
			c0-5.3-0.9-10.3-2.6-14.9c-1.8-4.7-4.3-8.8-7.6-12.3c-3.3-3.5-7.4-6.2-12.3-8.2c-4.9-2-10.4-2.9-16.4-2.9c-4.7,0-9.4,1.1-14.1,3.2
			c-4.7,2.2-9.1,5.3-13.2,9.4c-4.1,4.1-7.7,9.1-10.7,15.1c-3,6-5.1,12.7-6.3,20.4H458.8z"/>
	</g>
	<path class="st10" d="M502.1,509.6l-8.2-8.5c33.9-18,61.7-45.2,82.2-78c21.2-34,32.5-72.8,32.5-112.2c0-57.1-22.2-110.8-62.6-151.1
		c-40.4-40.4-94-62.6-151.1-62.6C288,97.1,196.2,181,182.7,288.7l-10.1-4.1C186.8,170.9,282,85.1,394.8,85.1
		c60.3,0,117,23.5,159.6,66.1c42.6,42.6,66.1,99.3,66.1,159.6c0,41.6-11.9,82.6-34.3,118.5C564.6,464,537.9,490.6,502.1,509.6z"/>
	<path class="st11" d="M220.6,302.3c-1.6,13.6,4,27.2,17.7,31.7c12.4,4.1,26.8-0.8,34.3-11.3c10.2-14.3,7.9-36.8,0.9-51.9
		c-7.9-17.1-25.1-29.8-44.1-31.2c-36-2.7-60.3,33.8-60.2,66.4c0,18.1,1.4,35.9,5.6,53.6c4.7,19.7,12.3,38.5,22.1,56.2
		c21.7,39.2,52.9,72,92,93.9c2.3,1.3,9.9-7.5,8.2-8.5c-61.3-34.4-104.9-94.8-114.5-165c-3.9-28.4-4.5-62.5,20.2-82.2
		c12.5-10,27.4-9,40.7-0.7c15,9.4,23,25.7,24,43.1c0.6,10.6-2.1,32.5-17,32.1c-13.9-0.4-19.8-15.6-18.4-27.4
		C232.8,296.1,221.1,298.1,220.6,302.3L220.6,302.3z"/>
	<g class="st1">
		<g>
			<path d="M577,203.5c0.4,0,2.2-0.8,1.2-0.8C577.8,202.7,576,203.5,577,203.5L577,203.5z"/>
		</g>
	</g>
	<g class="st1">
		<path class="st6" d="M-422.9,100.1c0,2.2,0.1,4,0.4,5.5c0.3,1.4,0.8,2.6,1.7,3.4c0.9,0.8,2.1,1.4,3.7,1.7c1.6,0.3,3.7,0.5,6.4,0.5
			h7.2c3.8,0,6.9-0.3,9.2-0.9c2.4-0.6,4.4-1.7,6-3.1c1.6-1.5,3.1-3.4,4.3-5.8c1.3-2.4,2.7-5.4,4.2-8.9l3.8,0.9
			c-0.5,1.9-1,3.9-1.5,6.1c-0.5,2.1-0.9,4.3-1.3,6.3c-0.4,2.1-0.7,4-1,5.9c-0.3,1.8-0.4,3.3-0.5,4.5c-13,0-23.5,0-31.5-0.1
			c-8-0.1-14-0.1-18-0.1c-1.2,0-2.6,0-4.2,0c-1.6,0-3.2,0-4.9,0c-1.7,0-3.3,0-4.9,0c-1.6,0-2.9,0-4.1,0l-0.3-3.3
			c3-0.2,5.4-0.5,7.2-0.9c1.8-0.4,3.2-1.1,4.2-2c1-0.9,1.6-2.1,2-3.6c0.3-1.5,0.5-3.5,0.5-6V34.4c0-1.6-0.1-2.9-0.4-3.9
			c-0.3-1-0.9-1.9-1.8-2.6s-2.1-1.2-3.8-1.5c-1.7-0.3-3.9-0.6-6.7-0.7l0.3-3.5c1.2,0,2.7,0,4.2,0c1.6,0,3.2,0,4.8,0
			c1.7,0,3.3,0,4.9,0c1.6,0,3.1,0,4.4,0c2.5,0,7.9,0,16-0.1c8.1-0.1,18.5-0.1,31.1-0.1c-0.4,3.3-0.7,6.8-0.9,10.4
			c-0.2,3.6-0.3,7.5-0.4,11.6l-3.9,0.1c-0.6-3.4-1.2-6.2-2-8.4c-0.7-2.2-1.7-4-3-5.3c-1.3-1.3-3-2.3-5.1-2.8
			c-2.1-0.6-4.8-0.8-8.1-0.8h-14c-2,0-3.2,0.2-3.8,0.6c-0.6,0.4-0.8,1.4-0.8,3v33.8l33-1l0.7,0.7l-0.2,8.1
			c-5.9-0.5-11.8-0.9-17.5-1.1c-5.8-0.2-11.1-0.4-16-0.5V100.1z"/>
		<path class="st7" d="M-286.5,117.3c-1.7-2.4-3.4-4.7-5.1-7c-1.7-2.2-3.5-4.5-5.4-6.8l-52.6-62.4v57.7c0,3.1,0.2,5.5,0.5,7.2
			c0.4,1.7,1,3,2,3.9c1,0.9,2.3,1.5,4,1.8c1.7,0.3,3.8,0.5,6.5,0.7l-0.2,3.5c-2.1,0-4.5,0-7.4-0.1c-2.8-0.1-5.8-0.1-8.9-0.1
			c-2.5,0-5.1,0-7.8,0.1c-2.7,0.1-5.2,0.1-7.5,0.1l-0.3-3.3c2.6-0.3,4.8-0.6,6.4-0.9c1.7-0.4,3-1.1,4.1-2.2c1-1.1,1.7-2.8,2.1-5
			c0.4-2.2,0.6-5.3,0.6-9.2V46.4c0-2.7,0-4.9-0.1-6.6c-0.1-1.7-0.2-3.1-0.4-4.2c-0.2-1.1-0.5-2-0.9-2.7c-0.4-0.7-0.9-1.5-1.6-2.2
			c-0.7-0.8-1.3-1.6-2-2.1c-0.7-0.6-1.4-1.1-2.2-1.5c-0.8-0.4-1.9-0.7-3.1-0.9c-1.2-0.2-2.8-0.4-4.6-0.5l0.2-3.5c0.8,0,1.9,0,3.5,0
			c1.5,0,3.2,0,5.1,0c1.9,0,3.8,0,5.9,0c2,0,3.9,0,5.7,0l62.8,73.5V39.4c0-3.1-0.2-5.5-0.5-7.2c-0.4-1.7-1-3-2-3.9
			c-1-0.9-2.3-1.5-4-1.8c-1.7-0.3-3.9-0.5-6.5-0.7l0.2-3.5c2.1,0,4.6,0,7.4,0.1c2.9,0.1,5.9,0.1,9,0.1c1.2,0,2.5,0,3.9,0
			c1.4,0,2.7-0.1,4.1-0.1c1.3,0,2.6-0.1,3.8-0.1c1.2,0,2.3,0,3.2,0l0.1,3.3c-2.5,0.3-4.6,0.6-6.2,1c-1.6,0.4-2.9,1.1-3.9,2.2
			c-0.9,1.1-1.6,2.8-2,5c-0.4,2.2-0.6,5.3-0.6,9.2v73.4L-286.5,117.3z"/>
	</g>
	<path class="st12" d="M620.4,304.1c0.5-19.8-7.7-40.4-23.1-53.3c-16.5-13.8-38.2-14.5-56.7-4.1c-20.1,11.3-31,32.5-30.1,55.4
		c0.7,17,9.8,33.4,28.6,33.2c19.5-0.3,32.2-16.4,30-35.3c-0.5-4.2-12.1-1.5-11.6,3.1c1.2,9.8-2.5,24.7-14.7,25.2
		c-14.4,0.6-19.9-16.4-20.6-27.9c-1.1-18.2,6.3-37.2,21.7-47.5c14.6-9.7,31.2-8,44.1,3.7c13.5,12.1,21.3,30.7,20.8,48.7
		C608.6,310.5,620.2,308.2,620.4,304.1L620.4,304.1z"/>
	<g class="st1">
		<g>
			<linearGradient id="SVGID_1_" gradientUnits="userSpaceOnUse" x1="214.5763" y1="247.9444" x2="478.6364" y2="247.9444">
				<stop  offset="0" style="stop-color:#5AAEA5"/>
				<stop  offset="0.4451" style="stop-color:#628EA0"/>
				<stop  offset="1" style="stop-color:#82027C"/>
			</linearGradient>
			<path class="st13" d="M414.5,229.6c2.6,3.5,11.1,4.1,11.4,9.7c0,2.3-1.2,3.2-3.5,3.5c-6.2,0.9-11.7-6.7-11.7-6.7
				c-21.4-12.9-60.7,11.4-60.7,50.7c0,31.7,20.8,57.7,47.2,57.7c36,0,66.5-29.9,66.5-64.8c0-18.5-10.3-31.1-25.8-31.1
				c-24.3,0-47.8,25.5-47.8,46.3c0,13.5,9.1,23.4,20.5,23.4c29.3,0,30.8-39,30.8-48.4h3.5c0.9,14.7-2.9,52.5-34.3,52.5
				c-14.1,0-24.6-12.3-24.6-27.5c0-23.7,25.8-50.4,51.9-50.4c17.6,0,29.9,14.7,29.9,35.2c0,38.7-33.7,70-70.6,70
				c-48.9,0-75-28.1-75-65.1c0-35.2,24.9-66.8,72.7-63.3c-5.6-8.2-8.5-16.1-9.7-23.7c-13.5-3.8-30.8-6.7-56-6.7
				c-67.4,0-110.8,29.3-110.8,63c0,2.3,3.5,14.9,4.4,16.1l-3.5,2.3c0,0-4.7-8.5-4.7-18.2c0-36.9,44.8-67.1,114.6-67.1
				c26.1,0,43.4,2.3,56,5.3c-0.6-26.7,24-46.6,54.2-46.3c21.7,0.3,39.3,16.4,39.3,35.2c0,16.4-18.2,31.4-39.3,31.4
				c-11.7,0-20.5-3.2-30.8-7c0.3,9.1,2.3,17.6,6.2,24H414.5z M408,200.9c9.4,4.4,17.6,8.2,30.8,8.2c16.4,0,35.8-11.4,35.8-27.8
				c0-13.5-12-24.9-26.4-24.9c-27,0.3-39,22.9-39.9,44.5H408z"/>
		</g>
	</g>
	<rect x="-860" y="259" style="display:inline;fill:none;" width="752" height="416"/>
	<text transform="matrix(1 0 0 1 -619.7988 384.7998)" class="st1" style="font-family:'ChopinScript'; font-size:200px;">En</text>
</g>
</svg>
